<svg width="411" height="110" viewBox="0 30 411 110" fill="none" xmlns="http://www.w3.org/2000/svg">
<path d="M41.2 122.44C35.76 122.44 31.04 121.08 27.04 118.36C23.12 115.64 20.08 111.76 17.92 106.72C15.76 101.68 14.68 95.76 14.68 88.96C14.68 82.16 15.76 76.24 17.92 71.2C20.08 66.16 23.16 62.28 27.16 59.56C31.16 56.84 35.84 55.48 41.2 55.48C45.68 55.48 49.6 56.4 52.96 58.24C56.4 60.08 59 62.68 60.76 66.04V35.8H76.12V121H61.48L61.12 111.52C59.36 114.96 56.72 117.64 53.2 119.56C49.68 121.48 45.68 122.44 41.2 122.44ZM45.88 109.96C49.08 109.96 51.76 109.16 53.92 107.56C56.16 105.96 57.84 103.6 58.96 100.48C60.16 97.28 60.76 93.44 60.76 88.96C60.76 84.4 60.16 80.56 58.96 77.44C57.84 74.32 56.16 71.96 53.92 70.36C51.76 68.76 49.08 67.96 45.88 67.96C41.24 67.96 37.52 69.84 34.72 73.6C32 77.28 30.64 82.4 30.64 88.96C30.64 95.36 32 100.48 34.72 104.32C37.52 108.08 41.24 109.96 45.88 109.96ZM113.479 122.44C107.079 122.44 101.519 121.08 96.7994 118.36C92.0794 115.56 88.4394 111.64 85.8794 106.6C83.3194 101.56 82.0394 95.68 82.0394 88.96C82.0394 82.24 83.3194 76.4 85.8794 71.44C88.4394 66.4 92.0394 62.48 96.6794 59.68C101.399 56.88 106.879 55.48 113.119 55.48C119.199 55.48 124.519 56.84 129.079 59.56C133.719 62.28 137.279 66.2 139.759 71.32C142.239 76.44 143.479 82.6 143.479 89.8V93.28H97.9994C98.3194 98.88 99.8394 103.12 102.559 106C105.359 108.8 109.039 110.2 113.599 110.2C117.039 110.2 119.879 109.44 122.119 107.92C124.439 106.32 126.039 104.12 126.919 101.32L142.639 102.28C140.879 108.52 137.399 113.44 132.199 117.04C127.079 120.64 120.839 122.44 113.479 122.44ZM97.9994 82.96H127.639C127.319 77.76 125.839 73.92 123.199 71.44C120.559 68.88 117.199 67.6 113.119 67.6C109.039 67.6 105.639 68.92 102.919 71.56C100.279 74.2 98.6394 78 97.9994 82.96ZM177.326 122.44C170.926 122.44 165.366 121.08 160.646 118.36C155.926 115.56 152.246 111.64 149.606 106.6C147.046 101.56 145.766 95.68 145.766 88.96C145.766 82.24 147.046 76.4 149.606 71.44C152.246 66.4 155.926 62.48 160.646 59.68C165.366 56.88 170.926 55.48 177.326 55.48C182.766 55.48 187.606 56.44 191.846 58.36C196.086 60.28 199.526 63.04 202.166 66.64C204.886 70.16 206.566 74.48 207.206 79.6L191.366 80.44C190.726 76.36 189.126 73.28 186.566 71.2C184.086 69.04 181.006 67.96 177.326 67.96C172.366 67.96 168.526 69.84 165.806 73.6C163.086 77.28 161.726 82.4 161.726 88.96C161.726 95.6 163.086 100.76 165.806 104.44C168.526 108.12 172.366 109.96 177.326 109.96C181.086 109.96 184.206 108.88 186.686 106.72C189.246 104.56 190.806 101.2 191.366 96.64L207.206 97.36C206.566 102.48 204.926 106.92 202.286 110.68C199.646 114.44 196.206 117.36 191.966 119.44C187.726 121.44 182.846 122.44 177.326 122.44ZM234.723 122.44C229.283 122.44 224.563 121.08 220.563 118.36C216.643 115.64 213.603 111.76 211.443 106.72C209.283 101.68 208.203 95.76 208.203 88.96C208.203 82.16 209.283 76.24 211.443 71.2C213.603 66.16 216.683 62.28 220.683 59.56C224.683 56.84 229.363 55.48 234.723 55.48C239.203 55.48 243.123 56.4 246.483 58.24C249.923 60.08 252.523 62.68 254.283 66.04V35.8H269.643V121H255.003L254.643 111.52C252.883 114.96 250.243 117.64 246.723 119.56C243.203 121.48 239.203 122.44 234.723 122.44ZM239.403 109.96C242.603 109.96 245.283 109.16 247.443 107.56C249.683 105.96 251.363 103.6 252.483 100.48C253.683 97.28 254.283 93.44 254.283 88.96C254.283 84.4 253.683 80.56 252.483 77.44C251.363 74.32 249.683 71.96 247.443 70.36C245.283 68.76 242.603 67.96 239.403 67.96C234.763 67.96 231.043 69.84 228.243 73.6C225.523 77.28 224.163 82.4 224.163 88.96C224.163 95.36 225.523 100.48 228.243 104.32C231.043 108.08 234.763 109.96 239.403 109.96ZM281.392 121V56.92H295.312L295.912 74.92L294.112 74.2C294.752 69.72 296.072 66.12 298.072 63.4C300.072 60.68 302.512 58.68 305.392 57.4C308.272 56.12 311.432 55.48 314.872 55.48C319.592 55.48 323.552 56.52 326.752 58.6C330.032 60.68 332.512 63.56 334.192 67.24C335.872 70.84 336.712 75.04 336.712 79.84V121H321.352V84.76C321.352 81.16 320.992 78.12 320.272 75.64C319.552 73.16 318.352 71.28 316.672 70C315.072 68.64 312.912 67.96 310.192 67.96C306.112 67.96 302.832 69.4 300.352 72.28C297.952 75.16 296.752 79.32 296.752 84.76V121H281.392Z" fill="white"/>
<path d="M343.743 133.84V121H401.583V133.84H343.743Z" fill="#0F9D6A"/>
</svg>
