<svg xmlns="http://www.w3.org/2000/svg" viewBox="0 0 64 64">
  <rect width="64" height="64" rx="12" fill="#000000" />
  <!-- lowercase d, Geist-Bold glyph path (1000-unit em), scaled 0.055 and translated to fit. -->
  <g transform="translate(10 51) scale(0.055)" fill="#ffffff" fill-rule="nonzero">
    <path d="M257 12Q189 12 139.5-22Q90-56 63.5-119Q37-182 37-268Q37-354 64-416.5Q91-479 140.5-513.5Q190-548 257-548Q314-548 355.5-524.5Q397-501 418-460L418-710L568-710L568 0L425 0L422-79Q399-36 355.5-12Q312 12 257 12ZM306-103Q360-103 389-145Q418-187 418-268Q418-350 389-391.5Q360-433 306-433Q253-433 222-389Q191-345 191-268Q191-193 222.5-148Q254-103 306-103Z" />
  </g>
  <!-- whisper-green square period, matching Geist-Bold's "." glyph proportions -->
  <rect x="47" y="43" width="9" height="8" fill="#0f9d6a" />
</svg>
