<svg xmlns="http://www.w3.org/2000/svg" viewBox="0 0 64 64">
  <rect width="64" height="64" rx="12" fill="#000000" />
  <!-- lowercase d, Geist-Regular glyph path (1000-unit em), scaled and translated to fit. -->
  <g transform="translate(7.36 51) scale(0.06)" fill="#ffffff" fill-rule="nonzero">
    <path d="M268 12Q199 12 148.5-22Q98-56 71-118Q44-180 44-265Q44-350 71-412Q98-474 148.5-508Q199-542 268-542Q321-542 365-519.5Q409-497 431-456L431-710L515-710L515 0L439 0L436-80Q414-37 369-12.5Q324 12 268 12ZM285-68Q356-68 393.5-121Q431-174 431-265Q431-357 393.5-409.5Q356-462 285-462Q215-462 173.5-409.5Q132-357 132-265Q132-174 173.5-121Q215-68 285-68Z" />
  </g>
  <!-- whisper-green square period, matching Geist's square "." glyph -->
  <rect x="42" y="43" width="8" height="8" fill="#0f9d6a" />
</svg>
