<svg width="150" height="150" viewBox="0 0 150 150" fill="none" xmlns="http://www.w3.org/2000/svg">
  <rect width="150" height="150" rx="28" ry="28" fill="white"/>
  <g transform="translate(75,75) scale(0.9) translate(-75,-75)">
    <path d="M38.2 119.44C32.76 119.44 28.04 118.08 24.04 115.36C20.12 112.64 17.08 108.76 14.92 103.72C12.76 98.68 11.68 92.76 11.68 85.96C11.68 79.16 12.76 73.24 14.92 68.2C17.08 63.16 20.16 59.28 24.16 56.56C28.16 53.84 32.84 52.48 38.2 52.48C42.68 52.48 46.6 53.4 49.96 55.24C53.4 57.08 56 59.68 57.76 63.04V32.8H73.12V118H58.48L58.12 108.52C56.36 111.96 53.72 114.64 50.2 116.56C46.68 118.48 42.68 119.44 38.2 119.44ZM42.88 106.96C46.08 106.96 48.76 106.16 50.92 104.56C53.16 102.96 54.84 100.6 55.96 97.48C57.16 94.28 57.76 90.44 57.76 85.96C57.76 81.4 57.16 77.56 55.96 74.44C54.84 71.32 53.16 68.96 50.92 67.36C48.76 65.76 46.08 64.96 42.88 64.96C38.24 64.96 34.52 66.84 31.72 70.6C29 74.28 27.64 79.4 27.64 85.96C27.64 92.36 29 97.48 31.72 101.32C34.52 105.08 38.24 106.96 42.88 106.96Z" fill="black"/>
    <path d="M80.2113 130.84V118H138.051V130.84H80.2113Z" fill="#0F9D6A"/>
  </g>
</svg>
